<svg xmlns="http://www.w3.org/2000/svg" width="900" height="230" viewBox="0 0 900 230" role="img" aria-label="NUMBERS that matter">
<defs>
<radialGradient id="glow"><stop offset="0" stop-color="#ff1f2d" stop-opacity=".55"/><stop offset=".55" stop-color="#b3121c" stop-opacity=".16"/><stop offset="1" stop-color="#ff1f2d" stop-opacity="0"/></radialGradient>
<radialGradient id="glowP"><stop offset="0" stop-color="#ff4f9a" stop-opacity=".35"/><stop offset="1" stop-color="#ff4f9a" stop-opacity="0"/></radialGradient>
<linearGradient id="sweep" x1="0" x2="1"><stop offset="0" stop-color="#ff1f2d" stop-opacity="0"/><stop offset=".5" stop-color="#ff1f2d" stop-opacity=".16"/><stop offset="1" stop-color="#ff1f2d" stop-opacity="0"/></linearGradient>
<linearGradient id="redline" x1="0" x2="1"><stop offset="0" stop-color="#ff1f2d" stop-opacity="0"/><stop offset=".5" stop-color="#ff1f2d"/><stop offset="1" stop-color="#ff1f2d" stop-opacity="0"/></linearGradient>
<filter id="blur" x="-50%" y="-50%" width="200%" height="200%"><feGaussianBlur stdDeviation="9"/></filter>
<filter id="tglow" x="-20%" y="-40%" width="140%" height="180%"><feGaussianBlur stdDeviation="5" result="b"/><feMerge><feMergeNode in="b"/><feMergeNode in="SourceGraphic"/></feMerge></filter>

<clipPath id="fr"><rect x="14" y="14" width="872" height="202" rx="22"/></clipPath></defs>
<rect width="900" height="230" fill="#050507"/>
<g clip-path="url(#fr)">
<circle cy="115" r="378" fill="url(#glow)"><animate attributeName="cx" values="702;495;702" dur="14s" repeatCount="indefinite"/><animate attributeName="opacity" values=".7;1;.7" dur="7s" repeatCount="indefinite"/></circle>
<circle cx="108" cy="200" r="164" fill="url(#glowP)"><animate attributeName="opacity" values=".3;.8;.3" dur="9s" repeatCount="indefinite"/></circle>
<line x1="44" y1="58" x2="44" y2="186" stroke="#fff" stroke-opacity="0.03"/><line x1="74" y1="58" x2="74" y2="186" stroke="#fff" stroke-opacity="0.03"/><line x1="104" y1="58" x2="104" y2="186" stroke="#fff" stroke-opacity="0.07"/><line x1="134" y1="58" x2="134" y2="186" stroke="#fff" stroke-opacity="0.03"/><line x1="164" y1="58" x2="164" y2="186" stroke="#fff" stroke-opacity="0.03"/><line x1="194" y1="58" x2="194" y2="186" stroke="#fff" stroke-opacity="0.07"/><line x1="224" y1="58" x2="224" y2="186" stroke="#fff" stroke-opacity="0.03"/><line x1="254" y1="58" x2="254" y2="186" stroke="#fff" stroke-opacity="0.03"/><line x1="284" y1="58" x2="284" y2="186" stroke="#fff" stroke-opacity="0.07"/><line x1="314" y1="58" x2="314" y2="186" stroke="#fff" stroke-opacity="0.03"/><line x1="344" y1="58" x2="344" y2="186" stroke="#fff" stroke-opacity="0.03"/><line x1="374" y1="58" x2="374" y2="186" stroke="#fff" stroke-opacity="0.07"/><line x1="404" y1="58" x2="404" y2="186" stroke="#fff" stroke-opacity="0.03"/><line x1="434" y1="58" x2="434" y2="186" stroke="#fff" stroke-opacity="0.03"/><line x1="464" y1="58" x2="464" y2="186" stroke="#fff" stroke-opacity="0.07"/><line x1="494" y1="58" x2="494" y2="186" stroke="#fff" stroke-opacity="0.03"/><line x1="524" y1="58" x2="524" y2="186" stroke="#fff" stroke-opacity="0.03"/><line x1="554" y1="58" x2="554" y2="186" stroke="#fff" stroke-opacity="0.07"/><line x1="584" y1="58" x2="584" y2="186" stroke="#fff" stroke-opacity="0.03"/><line x1="614" y1="58" x2="614" y2="186" stroke="#fff" stroke-opacity="0.03"/><line x1="644" y1="58" x2="644" y2="186" stroke="#fff" stroke-opacity="0.07"/><line x1="674" y1="58" x2="674" y2="186" stroke="#fff" stroke-opacity="0.03"/><line x1="704" y1="58" x2="704" y2="186" stroke="#fff" stroke-opacity="0.03"/><line x1="734" y1="58" x2="734" y2="186" stroke="#fff" stroke-opacity="0.07"/><line x1="764" y1="58" x2="764" y2="186" stroke="#fff" stroke-opacity="0.03"/><line x1="794" y1="58" x2="794" y2="186" stroke="#fff" stroke-opacity="0.03"/><line x1="824" y1="58" x2="824" y2="186" stroke="#fff" stroke-opacity="0.07"/><line x1="854" y1="58" x2="854" y2="186" stroke="#fff" stroke-opacity="0.03"/>
<rect x="0" y="58" width="150" height="130" fill="url(#sweep)"><animateTransform attributeName="transform" type="translate" from="-200 0" to="950 0" dur="7s" repeatCount="indefinite"/></rect>
<text x="50" y="104" font-family="'JetBrains Mono','SFMono-Regular',Menlo,Consolas,'Courier New',monospace" font-size="13" font-weight="500" fill="#ff1f2d" letter-spacing="3">// DATA &amp; GRAPHS</text>
<text x="50" y="166" font-family="Inter,'Segoe UI',-apple-system,Helvetica,Arial,sans-serif" font-size="58" font-weight="800" fill="#f4f4f5">NUMBERS that <tspan font-family="'Playfair Display',Georgia,'Times New Roman',serif" font-style="italic" font-weight="400" fill="#ff1f2d" filter="url(#tglow)">matter</tspan></text>
<text x="52" y="198" font-family="'JetBrains Mono','SFMono-Regular',Menlo,Consolas,'Courier New',monospace" font-size="12" fill="#9a9aa3" letter-spacing="2">AI MARKET · ANALYTICS · INSIGHTS</text>
</g>
<rect x="14" y="14" width="872" height="202" rx="22" fill="none" stroke="#fff" stroke-opacity=".28"/>
<line x1="14" y1="58" x2="886" y2="58" stroke="#fff" stroke-opacity=".18"/>
<circle cx="40" cy="36" r="6" fill="none" stroke="#fff" stroke-opacity=".8"/><circle cx="62" cy="36" r="6" fill="none" stroke="#fff" stroke-opacity=".8"/><circle cx="84" cy="36" r="6" fill="none" stroke="#fff" stroke-opacity=".8"/>
<text x="450" y="40" font-family="'JetBrains Mono','SFMono-Regular',Menlo,Consolas,'Courier New',monospace" font-size="10.5" fill="#9a9aa3" text-anchor="middle" letter-spacing="3">DATA / 2026 / ROHIT KASHYAP</text>
<text x="856" y="42" font-family="Inter,'Segoe UI',-apple-system,Helvetica,Arial,sans-serif" font-size="20" font-weight="800" fill="#ff1f2d" text-anchor="middle">*</text>
</svg>